<?xml version="1.0" encoding="UTF-8"?>
<svg width="42px" height="42px" viewBox="0 0 42 42" version="1.1" xmlns="http://www.w3.org/2000/svg" xmlns:xlink="http://www.w3.org/1999/xlink">
    <!-- Generator: Sketch 46.2 (44496) - http://www.bohemiancoding.com/sketch -->
    <title>omni</title>
    <desc>Created with Sketch.</desc>
    <defs></defs>
    <g id="Page-1" stroke="none" stroke-width="1" fill="none" fill-rule="evenodd">
        <g id="omni" fill="#ffffff">
            <path d="M11,7.4781948 L30.7399998,7.4781948 C32.9491388,7.4781948 34.7399998,9.2690558 34.7399998,11.4781948 L34.7399998,34.5952371 C34.7399998,36.8043761 32.9491388,38.5952371 30.7399998,38.5952371 L11,38.5952371 L11,38.5952371 C8.790861,38.5952371 7,36.8043761 7,34.5952371 L7,11.4781948 L7,11.4781948 C7,9.2690558 8.790861,7.4781948 11,7.4781948 L11,7.4781948 Z M13.1231656,22.8813317 L11.7225699,24.3085185 L11.7225699,24.3085185 C11.335735,24.7026977 11.3416887,25.3358347 11.7358679,25.7226696 C11.7386639,25.7254135 11.7414761,25.728141 11.7443042,25.7308519 L17.321844,31.0772517 C17.7199426,31.4588527 18.3518207,31.4461551 18.7342676,31.0488689 L30.201973,19.1362067 C30.5849958,18.7383223 30.572948,18.1052719 30.1750636,17.7222491 C30.1732149,17.7204694 30.1713593,17.7186968 30.1694969,17.7169314 L28.6685532,16.2941501 L28.6685532,16.2941501 C28.2704895,15.9168156 27.6427724,15.9305384 27.2615792,16.3249084 L18.5911742,25.2950251 C18.2127376,25.6865432 17.5906105,25.7033147 17.1916296,25.3327545 L14.517418,22.8490361 L14.517418,22.8490361 C14.120597,22.4804819 13.5024963,22.4947992 13.1231656,22.8813317 L13.1231656,22.8813317 Z" id="Rectangle-4" transform="translate(20.870000, 23.036716) rotate(-9.000000) translate(-20.870000, -23.036716) "></path>
        </g>
    </g>
</svg>
