<?xml version="1.0" encoding="UTF-8"?>
<svg width="42px" height="42px" viewBox="0 0 42 42" version="1.1" xmlns="http://www.w3.org/2000/svg" xmlns:xlink="http://www.w3.org/1999/xlink">
    <!-- Generator: Sketch 55.2 (78181) - https://sketchapp.com -->
    <title>toolbar</title>
    <desc>Created with Sketch.</desc>
    <g id="toolbar" stroke="none" stroke-width="1" fill="none" fill-rule="evenodd">
        <path d="M8.57771823,4.80648043 L33.4018146,4.80648043 C35.2150364,4.80648043 36.7225657,6.20249945 36.8616334,8.01038042 L37.7684525,19.7990288 C37.770723,19.8285454 37.7718596,19.8581383 37.7718596,19.8877421 L37.7718596,32.5667997 C37.7718596,35.1220665 35.7004065,37.1935196 33.1451397,37.1935196 L8.85486032,37.1935196 C6.29959349,37.1935196 4.22814044,35.1220665 4.22814044,32.5667997 L4.22814044,18.7347517 C4.22814044,18.7026911 4.22947341,18.6706444 4.23213589,18.6386946 L5.11966468,7.9883492 C5.26953921,6.18985485 6.77298991,4.80648043 8.57771823,4.80648043 Z M10.4799813,10.5898803 C9.88573528,10.5898803 9.38817139,11.0401694 9.3290417,11.6314663 L8.40369773,20.884906 C8.39987318,20.9231515 8.39795734,20.9615638 8.39795734,21 C8.39795734,21.6388167 8.91582061,22.15668 9.55463731,22.15668 L12.9032402,22.15668 C14.1808736,22.15668 15.2166002,23.1924065 15.2166002,24.4700399 L15.2166002,31.4101197 C15.2166002,32.0489364 15.7344634,32.5667997 16.3732801,32.5667997 L25.6267199,32.5667997 C26.2655366,32.5667997 26.7833998,32.0489364 26.7833998,31.4101197 L26.7833998,24.4700399 C26.7833998,23.1924065 27.8191264,22.15668 29.0967598,22.15668 L32.4453627,22.15668 C32.4837989,22.15668 32.5222112,22.1547641 32.5604566,22.1509396 C33.196103,22.0873749 33.6598669,21.5205524 33.5963023,20.884906 L32.6709583,11.6314663 C32.6118286,11.0401694 32.1142647,10.5898803 31.5200187,10.5898803 L10.4799813,10.5898803 Z" id="Path-4" fill="#000000"></path>
    </g>
</svg>